<svg width="800" height="400" viewBox="0 0 800 400" fill="none" xmlns="http://www.w3.org/2000/svg">
<path d="M143.63 166.48H120.13C114.99 166.48 110.83 170.64 110.83 175.78C110.83 180.92 114.99 185.08 120.13 185.08H137.62L140.73 190.47L143.85 185.07C148.88 184.95 152.93 180.84 152.93 175.78C152.93 170.64 148.77 166.48 143.63 166.48Z" fill="#F5EDFF" stroke="#5100CD" stroke-linecap="round" stroke-linejoin="round"/>
<path d="M126.77 159.77H100.37C94.5986 159.77 89.9199 164.449 89.9199 170.22C89.9199 175.991 94.5986 180.67 100.37 180.67H126.77C132.541 180.67 137.22 175.991 137.22 170.22C137.22 164.449 132.541 159.77 126.77 159.77Z" fill="#5100CD" stroke="#5100CD" stroke-linecap="round" stroke-linejoin="round"/>
<path d="M103.62 186.73L110.16 175.4H97.0801L103.62 186.73Z" fill="#5100CD" stroke="#5100CD" stroke-linecap="round" stroke-linejoin="round"/>
<path d="M646.71 273.1V131.86" stroke="#5100CD" stroke-linecap="round" stroke-linejoin="round"/>
<path d="M551.23 263.79V186.12" stroke="#5100CD" stroke-linecap="round" stroke-linejoin="round"/>
<path d="M103.62 274.77V193.64" stroke="#5100CD" stroke-linecap="round" stroke-linejoin="round"/>
<path d="M140.68 274.77V193.64" stroke="#5100CD" stroke-linecap="round" stroke-linejoin="round"/>
<path d="M446.03 220.6L496.4 191.35" stroke="#5100CD" stroke-linecap="round" stroke-linejoin="round"/>
<path d="M475.25 307.92L589.66 241.47" stroke="#5100CD" stroke-linecap="round" stroke-linejoin="round"/>
<path d="M687.95 260.31L725.51 238.49" stroke="#5100CD" stroke-linecap="round" stroke-linejoin="round"/>
<path d="M496.39 191.34L646.71 273.52" stroke="#5100CD" stroke-linecap="round" stroke-linejoin="round"/>
<path d="M407.26 271.03L474.75 307.93" stroke="#5100CD" stroke-linecap="round" stroke-linejoin="round"/>
<path d="M189.01 318.52L256.5 355.42" stroke="#5100CD" stroke-linecap="round" stroke-linejoin="round"/>
<path d="M647.97 237.88L687.95 259.74" stroke="#5100CD" stroke-linecap="round" stroke-linejoin="round"/>
<path d="M521.99 206.1L524.95 204.37L521.99 202.61L519.02 204.37L521.99 206.1Z" fill="#F5EDFF" stroke="#5100CD" stroke-linecap="round" stroke-linejoin="round"/>
<path d="M521.99 209.2V206.1L524.95 204.37V207.5L521.99 209.2Z" fill="#5100CD" stroke="#5100CD" stroke-linecap="round" stroke-linejoin="round"/>
<path d="M519.02 207.44V204.37L521.99 206.1V209.2L519.02 207.44Z" fill="#F5EDFF" stroke="#5100CD" stroke-linecap="round" stroke-linejoin="round"/>
<path d="M646.72 272.01L649.68 270.28L646.72 268.52L643.75 270.28L646.72 272.01Z" fill="#F5EDFF" stroke="#5100CD" stroke-linecap="round" stroke-linejoin="round"/>
<path d="M646.72 275.11V272.01L649.68 270.28V273.41L646.72 275.11Z" fill="#5100CD" stroke="#5100CD" stroke-linecap="round" stroke-linejoin="round"/>
<path d="M643.75 273.35V270.28L646.72 272.01V275.11L643.75 273.35Z" fill="#F5EDFF" stroke="#5100CD" stroke-linecap="round" stroke-linejoin="round"/>
<path d="M589.66 241.47L592.62 239.74L589.66 237.98L586.69 239.74L589.66 241.47Z" fill="#F5EDFF" stroke="#5100CD" stroke-linecap="round" stroke-linejoin="round"/>
<path d="M589.66 244.57V241.47L592.62 239.74V242.87L589.66 244.57Z" fill="#5100CD" stroke="#5100CD" stroke-linecap="round" stroke-linejoin="round"/>
<path d="M586.69 242.81V239.74L589.66 241.47V244.57L586.69 242.81Z" fill="#F5EDFF" stroke="#5100CD" stroke-linecap="round" stroke-linejoin="round"/>
<path d="M646.72 215.01L649.68 213.28L646.72 211.52L643.75 213.28L646.72 215.01Z" fill="#F5EDFF" stroke="#5100CD" stroke-linecap="round" stroke-linejoin="round"/>
<path d="M646.72 218.11V215.01L649.68 213.28V216.41L646.72 218.11Z" fill="#5100CD" stroke="#5100CD" stroke-linecap="round" stroke-linejoin="round"/>
<path d="M643.75 216.35V213.28L646.72 215.01V218.11L643.75 216.35Z" fill="#F5EDFF" stroke="#5100CD" stroke-linecap="round" stroke-linejoin="round"/>
<path d="M646.88 237.09L649.84 235.36L646.88 233.6L643.91 235.36L646.88 237.09Z" fill="#F5EDFF" stroke="#5100CD" stroke-linecap="round" stroke-linejoin="round"/>
<path d="M646.88 240.19V237.09L649.84 235.36V238.49L646.88 240.19Z" fill="#5100CD" stroke="#5100CD" stroke-linecap="round" stroke-linejoin="round"/>
<path d="M643.91 238.43V235.36L646.88 237.09V240.19L643.91 238.43Z" fill="#F5EDFF" stroke="#5100CD" stroke-linecap="round" stroke-linejoin="round"/>
<path d="M687.95 259.93L690.91 258.2L687.95 256.44L684.98 258.2L687.95 259.93Z" fill="#F5EDFF" stroke="#5100CD" stroke-linecap="round" stroke-linejoin="round"/>
<path d="M687.95 263.03V259.93L690.91 258.2V261.33L687.95 263.03Z" fill="#5100CD" stroke="#5100CD" stroke-linecap="round" stroke-linejoin="round"/>
<path d="M684.98 261.27V258.2L687.95 259.93V263.03L684.98 261.27Z" fill="#F5EDFF" stroke="#5100CD" stroke-linecap="round" stroke-linejoin="round"/>
<path d="M551.23 263.79L554.19 262.06L551.23 260.3L548.26 262.06L551.23 263.79Z" fill="#F5EDFF" stroke="#5100CD" stroke-linecap="round" stroke-linejoin="round"/>
<path d="M551.23 266.89V263.79L554.19 262.06V265.19L551.23 266.89Z" fill="#5100CD" stroke="#5100CD" stroke-linecap="round" stroke-linejoin="round"/>
<path d="M548.26 265.13V262.06L551.23 263.79V266.89L548.26 265.13Z" fill="#F5EDFF" stroke="#5100CD" stroke-linecap="round" stroke-linejoin="round"/>
<path d="M499.36 293.42L502.32 291.69L499.36 289.93L496.39 291.69L499.36 293.42Z" fill="#F5EDFF" stroke="#5100CD" stroke-linecap="round" stroke-linejoin="round"/>
<path d="M499.36 296.519V293.419L502.32 291.689V294.819L499.36 296.519Z" fill="#5100CD" stroke="#5100CD" stroke-linecap="round" stroke-linejoin="round"/>
<path d="M496.39 294.759V291.689L499.36 293.419V296.519L496.39 294.759Z" fill="#F5EDFF" stroke="#5100CD" stroke-linecap="round" stroke-linejoin="round"/>
<path d="M475.25 307.92L478.21 306.19L475.25 304.43L472.28 306.19L475.25 307.92Z" fill="#F5EDFF" stroke="#5100CD" stroke-linecap="round" stroke-linejoin="round"/>
<path d="M475.25 311.019V307.919L478.21 306.189V309.319L475.25 311.019Z" fill="#5100CD" stroke="#5100CD" stroke-linecap="round" stroke-linejoin="round"/>
<path d="M472.28 309.259V306.189L475.25 307.919V311.019L472.28 309.259Z" fill="#F5EDFF" stroke="#5100CD" stroke-linecap="round" stroke-linejoin="round"/>
<path d="M496.4 194.44V191.34L499.36 189.62V192.74L496.4 194.44Z" fill="#5100CD" stroke="#5100CD" stroke-linecap="round" stroke-linejoin="round"/>
<path d="M493.43 192.68V189.62L496.4 191.34V194.44L493.43 192.68Z" fill="#F5EDFF" stroke="#5100CD" stroke-linecap="round" stroke-linejoin="round"/>
<path d="M496.4 191.34L499.36 189.62L496.4 187.85L493.43 189.62L496.4 191.34Z" fill="#F5EDFF" stroke="#5100CD" stroke-linecap="round" stroke-linejoin="round"/>
<path d="M326.54 201.82L200.33 275.11" stroke="#5100CD" stroke-linecap="round" stroke-linejoin="round"/>
<path d="M236.21 253.65L239.79 251.57L236.21 249.44L232.63 251.57L236.21 253.65Z" fill="#F5EDFF" stroke="#5100CD" stroke-linecap="round" stroke-linejoin="round"/>
<path d="M236.21 257.4V253.65L239.79 251.57V255.34L236.21 257.4Z" fill="#5100CD" stroke="#5100CD" stroke-linecap="round" stroke-linejoin="round"/>
<path d="M232.63 255.27V251.57L236.21 253.65V257.4L232.63 255.27Z" fill="#F5EDFF" stroke="#5100CD" stroke-linecap="round" stroke-linejoin="round"/>
<path d="M140.68 230.68L144.26 228.6L140.68 226.47L137.1 228.6L140.68 230.68Z" fill="#F5EDFF" stroke="#5100CD" stroke-linecap="round" stroke-linejoin="round"/>
<path d="M140.68 234.43V230.68L144.26 228.6V232.37L140.68 234.43Z" fill="#5100CD" stroke="#5100CD" stroke-linecap="round" stroke-linejoin="round"/>
<path d="M137.1 232.3V228.6L140.68 230.68V234.43L137.1 232.3Z" fill="#F5EDFF" stroke="#5100CD" stroke-linecap="round" stroke-linejoin="round"/>
<path d="M103.62 202.05L107.2 199.97L103.62 197.84L100.04 199.97L103.62 202.05Z" fill="#F5EDFF" stroke="#5100CD" stroke-linecap="round" stroke-linejoin="round"/>
<path d="M103.62 205.8V202.05L107.2 199.97V203.74L103.62 205.8Z" fill="#5100CD" stroke="#5100CD" stroke-linecap="round" stroke-linejoin="round"/>
<path d="M100.04 203.67V199.97L103.62 202.05V205.8L100.04 203.67Z" fill="#F5EDFF" stroke="#5100CD" stroke-linecap="round" stroke-linejoin="round"/>
<path d="M383.71 282.21L257.5 355.5" stroke="#5100CD" stroke-linecap="round" stroke-linejoin="round"/>
<path d="M364 293.38L367.58 291.3L364 289.17L360.42 291.3L364 293.38Z" fill="#F5EDFF" stroke="#5100CD" stroke-linecap="round" stroke-linejoin="round"/>
<path d="M364 297.13V293.38L367.58 291.3V295.07L364 297.13Z" fill="#5100CD" stroke="#5100CD" stroke-linecap="round" stroke-linejoin="round"/>
<path d="M360.42 295V291.3L364 293.38V297.13L360.42 295Z" fill="#F5EDFF" stroke="#5100CD" stroke-linecap="round" stroke-linejoin="round"/>
<path d="M257.5 355.51L261.08 353.43L257.5 351.3L253.92 353.43L257.5 355.51Z" fill="#F5EDFF" stroke="#5100CD" stroke-linecap="round" stroke-linejoin="round"/>
<path d="M257.5 359.26V355.51L261.08 353.43V357.2L257.5 359.26Z" fill="#5100CD" stroke="#5100CD" stroke-linecap="round" stroke-linejoin="round"/>
<path d="M253.92 357.13V353.43L257.5 355.51V359.26L253.92 357.13Z" fill="#F5EDFF" stroke="#5100CD" stroke-linecap="round" stroke-linejoin="round"/>
<path d="M338.23 206.19V223.11V240.04L355.15 230.21V213.28V196.36L338.23 206.19Z" fill="#5100CD" stroke="#5100CD" stroke-linecap="round" stroke-linejoin="round"/>
<path d="M321.3 179.43L338.23 169.6L405.93 208.92L389.01 218.75L321.3 179.43Z" fill="#F5EDFF" stroke="#5100CD" stroke-linecap="round" stroke-linejoin="round"/>
<path d="M372.08 124.31L389 114.48V131.4L372.08 141.23V124.31Z" fill="#5100CD" stroke="#5100CD" stroke-linecap="round" stroke-linejoin="round"/>
<path d="M389 167.98L372.08 158.15L355.15 148.32L338.23 138.49L321.31 128.66V145.59L338.23 155.42L355.15 165.25L372.08 175.08L389 184.91V201.83V218.75L372.08 208.92L355.15 199.09L338.23 189.26L321.31 179.43V196.36V213.28V230.21V247.13L338.23 256.96L355.15 266.79L372.08 276.62L389 286.45L405.92 296.28V279.36L389 269.53L372.08 259.7L355.15 249.87L338.23 240.04V223.11V206.19L355.15 216.02L372.08 225.85L389 235.68L405.92 245.51V228.58V211.66V194.74V177.81L389 167.98Z" fill="#F5EDFF" stroke="#5100CD" stroke-linecap="round" stroke-linejoin="round"/>
<path d="M422.849 136.87L405.919 127.04L388.999 117.21L372.079 107.38L355.149 97.5503V114.47V131.4L372.079 141.23V124.3L388.999 134.14L405.919 143.97L422.849 153.8L439.769 163.63V146.7L422.849 136.87Z" fill="#F5EDFF" stroke="#5100CD" stroke-linecap="round" stroke-linejoin="round"/>
<path d="M439.77 163.63V146.7L456.7 136.87V153.8L439.77 163.63Z" fill="#5100CD" stroke="#5100CD" stroke-linecap="round" stroke-linejoin="round"/>
<path d="M422.85 187.64V204.57V221.49V238.41V255.34L439.77 265.17V248.24V231.32V214.4V197.47L422.85 187.64Z" fill="#F5EDFF" stroke="#5100CD" stroke-linecap="round" stroke-linejoin="round"/>
<path d="M439.77 197.47V214.4V231.32V248.24V265.17L456.7 255.34V238.41V221.49V204.57V187.64L439.77 197.47Z" fill="#5100CD" stroke="#5100CD" stroke-linecap="round" stroke-linejoin="round"/>
<path d="M405.919 177.81V194.74V211.66V228.58V245.51L422.849 235.68V218.75V201.83V184.91V167.98L405.919 177.81Z" fill="#5100CD" stroke="#5100CD" stroke-linecap="round" stroke-linejoin="round"/>
<path d="M405.919 279.36L422.849 269.53V286.45L405.919 296.28V279.36Z" fill="#5100CD" stroke="#5100CD" stroke-linecap="round" stroke-linejoin="round"/>
<path d="M456.7 187.64L439.77 177.81L422.85 187.64L439.77 197.47L456.7 187.64Z" fill="#F5EDFF" stroke="#5100CD" stroke-linecap="round" stroke-linejoin="round"/>
<path d="M355.15 97.5502L372.08 87.7202L456.7 136.87L439.77 146.7L355.15 97.5502Z" fill="#F5EDFF" stroke="#5100CD" stroke-linecap="round" stroke-linejoin="round"/>
<path d="M321.3 128.66L338.23 118.83L422.85 167.98L405.92 177.81L321.3 128.66Z" fill="#F5EDFF" stroke="#5100CD" stroke-linecap="round" stroke-linejoin="round"/>
<path d="M338.23 240.04L355.15 230.2L422.85 269.53L405.92 279.36L338.23 240.04Z" fill="#F5EDFF" stroke="#5100CD" stroke-linecap="round" stroke-linejoin="round"/>
<path d="M43.29 299.59V313.96L154.35 378.5V364.13L43.29 299.59Z" fill="#F5EDFF" stroke="#5100CD" stroke-linecap="round" stroke-linejoin="round"/>
<path d="M154.35 364.13L265.41 299.59L154.35 233.56L43.29 299.59L154.35 364.13Z" fill="#F5EDFF" stroke="#5100CD" stroke-linecap="round" stroke-linejoin="round"/>
<path d="M154.35 364.13V378.5L265.41 313.96V299.59L154.35 364.13Z" fill="#5100CD" stroke="#5100CD" stroke-linecap="round" stroke-linejoin="round"/>
<path d="M153.2 312.4V354.42L188.04 334.19V292.14L153.2 312.4Z" fill="#DBC8F6" stroke="#5100CD" stroke-linecap="round" stroke-linejoin="round"/>
<path d="M134.97 301.87L153.2 312.4V354.42L134.97 343.89V301.87Z" fill="#F5EDFF" stroke="#5100CD" stroke-linecap="round" stroke-linejoin="round"/>
<path d="M169.79 281.7L134.97 301.87L153.2 312.4L188.04 292.14L169.79 281.7Z" fill="#F5EDFF" stroke="#5100CD" stroke-linecap="round" stroke-linejoin="round"/>
<path d="M159.93 263.33V284.3L178.16 294.83V273.86L159.93 263.33Z" fill="#F5EDFF" stroke="#5100CD" stroke-linecap="round" stroke-linejoin="round"/>
<path d="M159.9 263.33V284.3L141.67 294.83V273.86L159.9 263.33Z" fill="#F5EDFF" stroke="#5100CD" stroke-linecap="round" stroke-linejoin="round"/>
<path d="M178.15 294.76V273.77L159.92 284.3V305.29L178.15 294.76Z" fill="#DBC8F6" stroke="#5100CD" stroke-linecap="round" stroke-linejoin="round"/>
<path d="M141.68 294.76V273.77L159.91 284.3V305.29L141.68 294.76Z" fill="#F5EDFF" stroke="#5100CD" stroke-linecap="round" stroke-linejoin="round"/>
<path d="M159.91 284.3L141.68 273.77L159.9 263.33L178.15 273.77L159.92 284.3H159.91Z" fill="#F5EDFF" stroke="#5100CD" stroke-linecap="round" stroke-linejoin="round"/>
<path d="M121.85 287.6L95.4702 303.41L102.49 307.47L129.31 291.87L121.85 287.6Z" fill="#F5EDFF" stroke="#5100CD" stroke-linecap="round" stroke-linejoin="round"/>
<path d="M107.7 290.51V300.6L117.56 294.88V284.77L107.7 290.51Z" fill="#DBC8F6" stroke="#5100CD" stroke-linecap="round" stroke-linejoin="round"/>
<path d="M105.12 289.02L107.7 290.51V300.6L105.12 299.11V289.02Z" fill="#F5EDFF" stroke="#5100CD" stroke-linecap="round" stroke-linejoin="round"/>
<path d="M114.82 283.2L105.12 289.02L107.7 290.51L117.56 284.77L114.82 283.2Z" fill="#F5EDFF" stroke="#5100CD" stroke-linecap="round" stroke-linejoin="round"/>
<path d="M99.5303 264.25V299.91L134.36 279.68V243.99L99.5303 264.25Z" fill="#DBC8F6" stroke="#5100CD" stroke-linecap="round" stroke-linejoin="round"/>
<path d="M99.5303 292.36V299.92L134.36 279.7V272.1L99.5303 292.36Z" fill="#DBC8F6" stroke="#5100CD" stroke-linecap="round" stroke-linejoin="round"/>
<path d="M90.4102 258.99L99.5302 264.25V299.91L90.4102 294.64V258.99Z" fill="#F5EDFF" stroke="#5100CD" stroke-linecap="round" stroke-linejoin="round"/>
<path d="M124.67 238.45L90.4102 258.99L99.5302 264.25L134.36 243.99L124.67 238.45Z" fill="#F5EDFF" stroke="#5100CD" stroke-linecap="round" stroke-linejoin="round"/>
<path d="M104.77 281.38V289.02L111.1 285.34V277.7L104.77 281.38Z" fill="#5100CD"/>
<path d="M109.3 278.17V274.35L105.98 276.26V280.08L109.3 278.17Z" fill="#5100CD"/>
<path d="M114.19 276.17V283.81L120.52 280.13V272.48L114.19 276.17Z" fill="#5100CD"/>
<path d="M118.72 272.96V269.14L115.4 271.05V274.87L118.72 272.96Z" fill="#5100CD"/>
<path d="M170.79 254.39L197.17 270.2L190.15 274.26L163.33 258.66L170.79 254.39Z" fill="#DBC8F6" stroke="#5100CD" stroke-linecap="round" stroke-linejoin="round"/>
<path d="M184.94 257.3V267.39L175.07 261.67V251.57L184.94 257.3Z" fill="#F5EDFF" stroke="#5100CD" stroke-linecap="round" stroke-linejoin="round"/>
<path d="M187.52 255.81L184.94 257.3V267.39L187.52 265.9V255.81Z" fill="#DBC8F6" stroke="#5100CD" stroke-linecap="round" stroke-linejoin="round"/>
<path d="M177.82 250L187.52 255.81L184.94 257.3L175.07 251.57L177.82 250Z" fill="#DBC8F6" stroke="#5100CD" stroke-linecap="round" stroke-linejoin="round"/>
<path d="M193.11 231.05V266.7L158.27 246.47V210.79L193.11 231.05Z" fill="#F5EDFF" stroke="#5100CD" stroke-linecap="round" stroke-linejoin="round"/>
<path d="M193.11 259.15V266.71L158.27 246.49V238.89L193.11 259.15Z" fill="#F5EDFF" stroke="#5100CD" stroke-linecap="round" stroke-linejoin="round"/>
<path d="M202.22 225.78L193.11 231.05V266.7L202.22 261.43V225.78Z" fill="#DBC8F6" stroke="#5100CD" stroke-linecap="round" stroke-linejoin="round"/>
<path d="M167.96 205.24L202.22 225.78L193.11 231.05L158.27 210.79L167.96 205.24Z" fill="#DBC8F6" stroke="#5100CD" stroke-linecap="round" stroke-linejoin="round"/>
<path d="M168.84 236.96V244.6L162.51 240.92V233.27L168.84 236.96Z" fill="#5100CD"/>
<path d="M164.31 233.75V229.93L167.63 231.84V235.66L164.31 233.75Z" fill="#5100CD"/>
<path d="M177.18 241.52V249.16L170.85 245.48V237.83L177.18 241.52Z" fill="#5100CD"/>
<path d="M172.65 238.31V234.49L175.97 236.4V240.22L172.65 238.31Z" fill="#5100CD"/>
<path d="M184.94 246.75V254.39L178.6 250.71V243.06L184.94 246.75Z" fill="#5100CD"/>
<path d="M180.4 243.54V239.72L183.72 241.63V245.45L180.4 243.54Z" fill="#5100CD"/>
<path d="M578.66 128.53V140.57L671.73 194.65V182.61L578.66 128.53Z" fill="#F5EDFF" stroke="#5100CD" stroke-linecap="round" stroke-linejoin="round"/>
<path d="M671.73 182.62L764.8 128.54L671.73 73.1997L578.66 128.54L671.73 182.62Z" fill="#F5EDFF" stroke="#5100CD" stroke-linecap="round" stroke-linejoin="round"/>
<path d="M671.73 182.62V194.66L764.8 140.58V128.54L671.73 182.62Z" fill="#5100CD" stroke="#5100CD" stroke-linecap="round" stroke-linejoin="round"/>
<path d="M644.49 123.3L667.65 109.84L644.49 96.0698L621.33 109.84L644.49 123.3Z" fill="#F5EDFF" stroke="#5100CD" stroke-linecap="round" stroke-linejoin="round"/>
<path d="M644.49 123.3L644.32 123.59C644.43 123.65 644.56 123.65 644.66 123.59L644.49 123.3ZM667.65 109.84L667.82 110.13C667.92 110.07 667.99 109.96 667.99 109.84C667.99 109.72 667.93 109.61 667.82 109.55L667.65 109.84ZM621.33 109.84L621.16 109.55C621.06 109.61 620.99 109.72 620.99 109.84C620.99 109.96 621.05 110.07 621.16 110.13L621.33 109.84ZM644.49 96.0699L644.66 95.7799C644.55 95.7199 644.42 95.7199 644.31 95.7799L644.48 96.0699H644.49ZM634.9 109.75L634.73 109.46C634.63 109.52 634.56 109.63 634.56 109.75C634.56 109.87 634.62 109.98 634.73 110.04L634.9 109.75ZM644.49 104.04H644.83C644.83 103.92 644.76 103.81 644.66 103.75C644.55 103.69 644.42 103.69 644.32 103.75L644.49 104.04ZM644.49 104.04H644.15C644.15 104.16 644.21 104.27 644.32 104.33L644.49 104.04ZM654.08 109.74L654.25 110.03C654.35 109.97 654.42 109.86 654.42 109.74C654.42 109.62 654.36 109.51 654.25 109.45L654.08 109.74ZM644.49 115.31L644.32 115.6C644.43 115.66 644.56 115.66 644.66 115.6L644.49 115.31ZM644.66 123.58L667.82 110.12L667.48 109.53L644.32 122.99L644.66 123.58ZM621.16 110.12L644.32 123.58L644.66 122.99L621.5 109.53L621.16 110.12ZM644.32 95.7599L621.16 109.53L621.51 110.11L644.67 96.3399L644.32 95.7599ZM667.82 109.53L644.66 95.7599L644.31 96.3399L667.47 110.11L667.82 109.53ZM634.73 110.02L636.73 111.18L637.07 110.59L635.07 109.43L634.73 110.02ZM644.31 103.73L634.72 109.43L635.07 110.01L644.66 104.31L644.31 103.73ZM654.24 109.44L644.65 103.74L644.3 104.32L653.89 110.02L654.24 109.44ZM652.24 111.19L654.24 110.03L653.9 109.44L651.9 110.6L652.24 111.19ZM644.65 115.6L652.24 111.19L651.9 110.6L644.31 115.01L644.65 115.6ZM636.72 111.19L644.31 115.6L644.65 115.01L637.06 110.6L636.72 111.19Z" fill="#5100CD"/>
<path d="M634.9 109.75L636.9 110.91C639.41 109.42 644.49 106.39 644.49 106.39V104.04L634.9 109.74V109.75Z" fill="#5100CD" stroke="#5100CD" stroke-linecap="round" stroke-linejoin="round"/>
<path d="M644.49 104.05V106.39L652.08 110.91L654.08 109.75L644.49 104.05Z" stroke="#5100CD" stroke-linecap="round" stroke-linejoin="round"/>
<path d="M652.08 110.91L644.49 106.39C644.49 106.39 639.4 109.42 636.9 110.91L644.49 115.32L652.08 110.91Z" stroke="#5100CD" stroke-linecap="round" stroke-linejoin="round"/>
<path d="M667.641 109.84V129.53L644.48 142.99V123.3L667.641 109.84Z" fill="#5100CD" stroke="#5100CD" stroke-linecap="round" stroke-linejoin="round"/>
<path d="M621.32 109.84L644.48 123.3V142.99L621.32 129.53V109.84Z" fill="#F5EDFF" stroke="#5100CD" stroke-linecap="round" stroke-linejoin="round"/>
<path d="M639.49 101.79V106.77L644.47 103.89V98.9097L639.49 101.79Z" fill="#F5EDFF" stroke="#5100CD" stroke-linecap="round" stroke-linejoin="round"/>
<path d="M649.48 101.79V106.77L644.49 103.89V98.9097L649.48 101.79Z" fill="#F5EDFF" stroke="#5100CD" stroke-linecap="round" stroke-linejoin="round"/>
<path d="M644.48 109.63V104.65L639.5 101.77V106.75L644.48 109.63Z" fill="#F5EDFF" stroke="#5100CD" stroke-linecap="round" stroke-linejoin="round"/>
<path d="M644.49 109.63V104.65L649.47 101.77V106.75L644.49 109.63Z" fill="#5100CD" stroke="#5100CD" stroke-linecap="round" stroke-linejoin="round"/>
<path d="M639.5 101.77L644.48 98.9097L649.46 101.77L644.48 104.65L639.5 101.77Z" fill="#F5EDFF" stroke="#5100CD" stroke-linecap="round" stroke-linejoin="round"/>
<path d="M639.49 86.6598V91.6398L644.47 88.7598V83.7798L639.49 86.6598Z" fill="#F5EDFF" stroke="#5100CD" stroke-linecap="round" stroke-linejoin="round"/>
<path d="M649.48 86.6598V91.6398L644.49 88.7598V83.7798L649.48 86.6598Z" fill="#F5EDFF" stroke="#5100CD" stroke-linecap="round" stroke-linejoin="round"/>
<path d="M644.48 94.4996V89.5196L639.5 86.6396V91.6197L644.48 94.4996Z" fill="#F5EDFF" stroke="#5100CD" stroke-linecap="round" stroke-linejoin="round"/>
<path d="M644.49 94.4996V89.5196L649.47 86.6396V91.6197L644.49 94.4996Z" fill="#5100CD" stroke="#5100CD" stroke-linecap="round" stroke-linejoin="round"/>
<path d="M639.5 86.63L644.48 83.77L649.46 86.63L644.48 89.51L639.5 86.63Z" fill="#F5EDFF" stroke="#5100CD" stroke-linecap="round" stroke-linejoin="round"/>
<path d="M644.48 72.9701V67.9801L639.5 65.1001V70.0901L644.48 72.9701Z" fill="#F5EDFF" stroke="#5100CD" stroke-linecap="round" stroke-linejoin="round"/>
<path d="M644.49 72.9701V67.9801L649.47 65.1001V70.0901L644.49 72.9701Z" fill="#5100CD" stroke="#5100CD" stroke-linecap="round" stroke-linejoin="round"/>
<path d="M639.5 65.1L644.48 62.25L649.46 65.1L644.48 67.98L639.5 65.1Z" fill="#F5EDFF" stroke="#5100CD" stroke-linecap="round" stroke-linejoin="round"/>
<path d="M644.48 41.82V36.84L639.5 33.96V38.94L644.48 41.82Z" fill="#F5EDFF" stroke="#5100CD" stroke-linecap="round" stroke-linejoin="round"/>
<path d="M644.49 41.82V36.84L649.47 33.96V38.94L644.49 41.82Z" fill="#5100CD" stroke="#5100CD" stroke-linecap="round" stroke-linejoin="round"/>
<path d="M639.5 33.9599L644.48 31.1099L649.46 33.9599L644.48 36.8399L639.5 33.9599Z" fill="#F5EDFF" stroke="#5100CD" stroke-linecap="round" stroke-linejoin="round"/>
<path d="M697.81 152.96L678.21 141.68L676.88 142.45L696.48 153.73L697.81 152.96Z" fill="#5100CD"/>
<path d="M696.73 155.67L675.33 143.36L675.06 143.51L696.46 155.82L696.73 155.67Z" fill="#5100CD"/>
<path d="M695.04 156.65L673.64 144.34L673.37 144.49L694.77 156.8L695.04 156.65Z" fill="#5100CD"/>
<path d="M693.35 157.62L671.95 145.31L671.68 145.46L693.08 157.77L693.35 157.62Z" fill="#5100CD"/>
<path d="M681.12 152.54L670.25 146.29L669.98 146.44L680.85 152.69L681.12 152.54Z" fill="#5100CD"/>
<path d="M667.72 150.99L668.97 150.27L680.72 157.03L679.47 157.75L667.72 150.99ZM680.99 157.03L668.97 150.11L667.46 150.99L679.48 157.91L680.99 157.03Z" fill="#5100CD"/>
<path d="M664.23 153L665.48 152.28L674 157.18L672.75 157.9L664.23 153ZM674.27 157.18L665.48 152.12L663.97 153L672.76 158.06L674.27 157.18Z" fill="#5100CD"/>
<path d="M660.75 155.02L662 154.3L672.11 160.12L670.86 160.84L660.75 155.02ZM672.38 160.12L662 154.15L660.49 155.03L670.87 161L672.38 160.12Z" fill="#5100CD"/>
<path d="M657.27 157.04L658.52 156.32L665.14 160.13L663.89 160.85L657.27 157.04ZM665.4 160.12L658.52 156.16L657.01 157.04L663.89 161L665.4 160.12Z" fill="#5100CD"/>
<path d="M667.48 149.02L666.7 149.17L666.04 148.88V149.36L665.38 149.64L666.17 149.78L666.42 150.24L666.9 149.85H667.72L667.23 149.47L667.49 149.02H667.48Z" fill="#5100CD"/>
<path d="M663.19 152.03L663.06 151.95L662.73 152.14L662.4 151.95L662.27 152.03L662.74 152.3L663.2 152.03H663.19Z" fill="#5100CD"/>
<path d="M661.96 151.32L661.83 151.24L661.36 151.51L661.83 151.78L661.96 151.7L661.63 151.51L661.96 151.32Z" fill="#5100CD"/>
<path d="M663.18 150.999L662.71 150.729L662.24 150.999L662.37 151.079L662.7 150.889L663.03 151.079L663.16 150.999H663.18Z" fill="#5100CD"/>
<path opacity="0.25" d="M663.53 151.29L663.17 151.08L662.42 151.51L663.17 151.94L663.53 151.73L663.48 151.7L663.81 151.51L663.48 151.32L663.53 151.29Z" fill="#5100CD"/>
<path d="M663.91 151.51L663.52 151.29L663.47 151.32L663.8 151.51L663.47 151.7L663.52 151.73L663.9 151.51H663.91Z" fill="#5100CD"/>
<path d="M664.87 151.51L663.64 150.8L663.16 151.08L663.91 151.51L663.16 151.94L663.64 152.22L664.86 151.51H664.87Z" fill="#5100CD"/>
<path d="M659.01 153.929C658.59 153.689 658.64 153.239 658.66 153.099C658.89 153.089 659.67 153.059 660.09 153.299C660.51 153.539 660.46 153.989 660.44 154.129C660.21 154.149 659.43 154.169 659 153.929H659.01ZM660.23 153.219C659.66 152.889 658.61 152.989 658.56 152.999H658.49L658.48 153.039C658.48 153.069 658.31 153.679 658.87 153.999C659.44 154.329 660.49 154.229 660.54 154.219H660.61L660.62 154.169C660.62 154.139 660.79 153.529 660.23 153.209" fill="#5100CD"/>
<path d="M659.87 153.429C659.7 153.329 659.41 153.329 659.24 153.429C659.07 153.529 659.07 153.689 659.24 153.789C659.41 153.889 659.69 153.889 659.87 153.789C660.04 153.689 660.04 153.529 659.87 153.429Z" fill="#5100CD"/>
<path d="M656.3 155.5C656.17 155.43 655.97 155.43 655.84 155.5C655.71 155.57 655.71 155.69 655.84 155.77C655.97 155.84 656.17 155.84 656.3 155.77C656.43 155.7 656.42 155.58 656.3 155.5Z" fill="#5100CD"/>
<path d="M656.47 155.4C656.4 155.36 656.4 155.29 656.47 155.24C656.54 155.2 656.66 155.2 656.74 155.24C656.81 155.28 656.82 155.35 656.74 155.4C656.66 155.44 656.54 155.44 656.47 155.4ZM656.77 155.22C656.68 155.17 656.53 155.17 656.43 155.22C656.34 155.27 656.34 155.36 656.43 155.41C656.52 155.46 656.67 155.46 656.77 155.41C656.86 155.36 656.86 155.27 656.77 155.22Z" fill="#5100CD"/>
<path d="M655.39 156.02C655.32 155.98 655.32 155.91 655.39 155.86C655.47 155.82 655.59 155.82 655.66 155.86C655.73 155.9 655.74 155.97 655.66 156.02C655.59 156.06 655.46 156.06 655.39 156.02ZM655.69 155.84C655.6 155.79 655.45 155.79 655.35 155.84C655.26 155.89 655.26 155.98 655.35 156.03C655.44 156.08 655.59 156.08 655.69 156.03C655.78 155.98 655.78 155.89 655.69 155.83V155.84Z" fill="#5100CD"/>
<path d="M656.7 155.71C656.7 155.71 656.64 155.66 656.64 155.63C656.64 155.57 656.73 155.52 656.83 155.52C656.88 155.52 656.93 155.53 656.97 155.55C657.01 155.57 657.03 155.6 657.03 155.63C657.03 155.66 657.01 155.69 656.97 155.71C656.93 155.73 656.89 155.74 656.84 155.74C656.79 155.74 656.74 155.73 656.71 155.71H656.7ZM657 155.54C657 155.54 656.89 155.5 656.83 155.5C656.7 155.5 656.59 155.56 656.59 155.64C656.59 155.68 656.62 155.71 656.66 155.74C656.71 155.77 656.77 155.78 656.83 155.78C656.89 155.78 656.95 155.77 657 155.74C657.05 155.71 657.07 155.68 657.07 155.64C657.07 155.6 657.05 155.57 657 155.54Z" fill="#5100CD"/>
<path d="M655.17 155.71C655.17 155.71 655.11 155.66 655.11 155.63C655.11 155.6 655.13 155.57 655.17 155.55C655.21 155.53 655.25 155.52 655.3 155.52C655.35 155.52 655.4 155.53 655.43 155.55C655.47 155.57 655.49 155.6 655.49 155.63C655.49 155.69 655.41 155.74 655.3 155.74C655.25 155.74 655.2 155.73 655.16 155.71H655.17ZM655.47 155.54C655.47 155.54 655.37 155.5 655.3 155.5C655.23 155.5 655.18 155.51 655.13 155.54C655.08 155.57 655.06 155.6 655.06 155.64C655.06 155.68 655.09 155.71 655.13 155.74C655.17 155.77 655.23 155.78 655.3 155.78C655.43 155.78 655.54 155.72 655.54 155.64C655.54 155.6 655.51 155.57 655.47 155.54Z" fill="#5100CD"/>
<path d="M655.94 156.149C655.94 156.149 655.88 156.099 655.88 156.069C655.88 156.009 655.97 155.959 656.07 155.959C656.12 155.959 656.17 155.969 656.2 155.989C656.24 156.009 656.26 156.039 656.26 156.069C656.26 156.099 656.24 156.129 656.21 156.149C656.17 156.169 656.13 156.179 656.07 156.179C656.01 156.179 655.97 156.169 655.93 156.149H655.94ZM656.24 155.979C656.24 155.979 656.14 155.939 656.07 155.939C655.94 155.939 655.83 155.999 655.83 156.079C655.83 156.119 655.86 156.149 655.9 156.179C655.94 156.209 656 156.219 656.07 156.219C656.14 156.219 656.19 156.209 656.24 156.179C656.28 156.149 656.31 156.119 656.31 156.079C656.31 156.039 656.28 156.009 656.24 155.979Z" fill="#5100CD"/>
<path d="M655.93 155.27C655.93 155.27 655.87 155.22 655.87 155.19C655.87 155.16 655.89 155.13 655.92 155.11C655.96 155.09 656 155.08 656.06 155.08C656.11 155.08 656.16 155.09 656.19 155.11C656.23 155.13 656.25 155.16 656.25 155.19C656.25 155.25 656.17 155.3 656.06 155.3C656.01 155.3 655.96 155.29 655.93 155.27ZM656.23 155.1C656.23 155.1 656.12 155.06 656.06 155.06C656 155.06 655.94 155.07 655.89 155.1C655.85 155.13 655.82 155.16 655.82 155.2C655.82 155.24 655.85 155.27 655.89 155.3C655.94 155.33 656 155.34 656.06 155.34C656.19 155.34 656.3 155.28 656.3 155.2C656.3 155.16 656.28 155.13 656.23 155.1Z" fill="#5100CD"/>
<path d="M656.48 156.02C656.41 155.98 656.41 155.91 656.48 155.86C656.56 155.82 656.68 155.82 656.75 155.86C656.82 155.9 656.83 155.97 656.75 156.02C656.68 156.06 656.55 156.06 656.48 156.02ZM656.78 155.84C656.69 155.79 656.54 155.79 656.44 155.84C656.35 155.89 656.35 155.98 656.44 156.03C656.53 156.08 656.68 156.08 656.78 156.03C656.87 155.98 656.87 155.89 656.78 155.83V155.84Z" fill="#5100CD"/>
<path d="M655.39 155.4C655.32 155.36 655.32 155.29 655.39 155.24C655.47 155.2 655.59 155.2 655.66 155.24C655.73 155.28 655.74 155.35 655.66 155.4C655.59 155.44 655.46 155.44 655.39 155.4ZM655.69 155.22C655.6 155.17 655.45 155.17 655.35 155.22C655.26 155.27 655.26 155.36 655.35 155.41C655.44 155.46 655.59 155.46 655.69 155.41C655.78 155.36 655.78 155.27 655.69 155.21V155.22Z" fill="#5100CD"/>
<path d="M696.16 96.8996L692.39 98.4296L688.9 98.2596L684.85 95.8896L681.23 97.3396L678.72 95.8696L689.89 91.3696L696.45 95.2096L696.15 96.8996H696.16ZM690.99 96.5196L692.57 95.8896L692.63 95.5696L689.79 93.9096L687.49 94.8296L690.33 96.4896L691 96.5196H690.99Z" fill="#5100CD"/>
<path d="M702.49 104.1L699.19 103.94L697.2 106.69L694.54 105.13L696.54 102.49L694.94 101.55L691.09 103.11L688.58 101.64L699.75 97.1396L706.31 100.98L706.01 102.67L702.49 104.1ZM701.09 102.19L702.42 101.65L702.48 101.33L699.64 99.6696L697.57 100.51L700.4 102.16L701.1 102.19H701.09Z" fill="#5100CD"/>
<path d="M716 108.84L709.27 111.56L705.17 111.35L700.35 108.53L700.69 106.54L707.42 103.82L711.52 104.03L716.34 106.85L716 108.84ZM707.92 109.62L712.46 107.8L712.56 107.24L710.17 105.84L708.78 105.77L704.24 107.59L704.14 108.15L706.53 109.55L707.92 109.62Z" fill="#5100CD"/>
<path d="M726.84 112.99L717.89 116.6L713.79 116.39L709.71 114L709.99 112.33L713.66 112.51L713.48 113.6L715.15 114.58L716.54 114.65L724.33 111.52L726.84 112.99Z" fill="#5100CD"/>
<path d="M728.74 116.699L727.02 117.379L731.64 120.079L729.14 121.079L724.53 118.379L722.81 119.059L728.13 122.169L725.5 123.229L717.68 118.649L728.85 114.149L736.67 118.729L734.05 119.789L728.73 116.679L728.74 116.699Z" fill="#5100CD"/>
<path d="M737.43 126.36L737.13 128.21L733.7 128.04L729 125.29L729.34 123.3L736.07 120.58L740.17 120.79L744.78 123.49L744.5 125.16L740.82 124.97L741.02 123.89L738.82 122.6L737.43 122.53L732.89 124.35L732.79 124.91L735.09 126.25L737.45 126.36H737.43Z" fill="#5100CD"/>
<path d="M752.99 130.889L750.081 129.189L741.531 132.629L739.021 131.159L747.56 127.719L744.651 126.019L747.271 124.959L755.591 129.829L752.97 130.889H752.99Z" fill="#5100CD"/>
<path d="M695.06 116.78L692.99 115.57L690.55 116.55L689.05 115.67L691.49 114.69L689.42 113.48L691.19 112.76L693.26 113.97L695.7 112.99L697.2 113.87L694.76 114.85L696.83 116.06L695.06 116.78Z" fill="#5100CD"/>
<path d="M701.341 117.33L700.11 117.83L702.43 119.19L702.22 120.42L699.73 121.42L697.211 121.3L693.98 119.41L694.18 118.2L696.91 118.34L696.771 119.15L698.19 119.98L698.73 120.01L699.67 119.64L699.72 119.34L696.67 117.56L701.56 115.59L706.451 118.45L704.521 119.22L701.331 117.35L701.341 117.33Z" fill="#5100CD"/>
<path d="M708.04 121.25L706.81 121.75L709.13 123.11L708.92 124.34L706.43 125.34L703.91 125.22L700.68 123.33L700.88 122.12L703.61 122.26L703.47 123.07L704.89 123.9L705.43 123.93L706.37 123.56L706.42 123.26L703.37 121.48L708.26 119.51L713.15 122.37L711.22 123.14L708.03 121.27L708.04 121.25Z" fill="#5100CD"/>
<path d="M718.61 127.01L713.27 129.16L710.4 129.02L707.25 127.18L707.41 126.19L710.14 126.33L710.04 126.92L711.41 127.72L712.27 127.76L713.54 127.25L712.44 127.19L710.47 126.04L710.67 124.78L713.1 123.8L715.85 123.94L718.84 125.69L718.62 127.03L718.61 127.01ZM715.13 126.59L715.98 126.25L716.04 125.93L714.83 125.22L714.12 125.18L713.23 125.54L713.17 125.88L714.32 126.55L715.14 126.59H715.13Z" fill="#5100CD"/>
<path d="M720.46 132.999L718.54 133.779L713.42 130.789L715.34 130.009L716.99 130.979L721.08 129.329L719.1 128.999L719.72 127.709L723.31 128.299L725.27 129.449L718.82 132.049L720.45 132.999H720.46Z" fill="#5100CD"/>
<path d="M724.13 134.56L723.54 134.8L727.02 136.83L725.1 137.61L719.78 134.49L723.04 133.17L725.4 133.29L728.01 134.27L728.78 134.31L729.46 134.04L729.49 133.8L728.17 133.03L726.7 132.96L726.92 131.61L729.18 131.73L732.31 133.56L732.1 134.79L729.87 135.69L727.53 135.57L724.92 134.6L724.13 134.56Z" fill="#5100CD"/>
<path d="M734.93 139.79L735.63 140.2L733.7 140.97L733 140.56L731.3 141.25L729.46 140.17L731.17 139.49L728.05 137.66L730.36 136.73L737.46 136.58L739.67 137.88L734.92 139.8L734.93 139.79ZM733.1 138.72L735.57 137.72L731.66 137.88L733.1 138.72Z" fill="#5100CD"/>
<path d="M324.55 91.1899H301.05C295.91 91.1899 291.75 95.3499 291.75 100.49C291.75 105.63 295.91 109.79 301.05 109.79H318.54L321.65 115.18L324.77 109.78C329.8 109.66 333.85 105.55 333.85 100.49C333.85 95.3499 329.69 91.1899 324.55 91.1899Z" fill="#F5EDFF" stroke="#5100CD" stroke-linecap="round" stroke-linejoin="round"/>
<path d="M305.25 102.82C306.493 102.82 307.5 101.812 307.5 100.57C307.5 99.3272 306.493 98.3198 305.25 98.3198C304.007 98.3198 303 99.3272 303 100.57C303 101.812 304.007 102.82 305.25 102.82Z" fill="#5100CD"/>
<path d="M312.8 102.82C314.042 102.82 315.05 101.812 315.05 100.57C315.05 99.3272 314.042 98.3198 312.8 98.3198C311.557 98.3198 310.55 99.3272 310.55 100.57C310.55 101.812 311.557 102.82 312.8 102.82Z" fill="#5100CD"/>
<path d="M320.35 102.82C321.593 102.82 322.6 101.812 322.6 100.57C322.6 99.3272 321.593 98.3198 320.35 98.3198C319.107 98.3198 318.1 99.3272 318.1 100.57C318.1 101.812 319.107 102.82 320.35 102.82Z" fill="#5100CD"/>
<path d="M551.23 148.47V189.42L577.51 174.97L551.23 148.47Z" fill="#DBC8F6" stroke="#5100CD" stroke-linecap="round" stroke-linejoin="round"/>
<path d="M551.23 201.45V189.42L577.51 174.97L551.23 201.45Z" fill="#5100CD" stroke="#5100CD" stroke-linecap="round" stroke-linejoin="round"/>
<path d="M551.23 148.47V189.42L524.95 174.97L551.23 148.47Z" fill="#F5EDFF" stroke="#5100CD" stroke-linecap="round" stroke-linejoin="round"/>
<path d="M551.23 201.45V189.42L524.95 174.97L551.23 201.45Z" fill="#DBC8F6" stroke="#5100CD" stroke-linecap="round" stroke-linejoin="round"/>
<path d="M754.05 228.66L751.15 226.97L754.05 225.25L756.95 226.97L754.05 228.66Z" fill="#F5EDFF" stroke="#5100CD" stroke-linecap="round" stroke-linejoin="round"/>
<path d="M746.3 233.16L743.4 231.47L746.3 229.74L749.2 231.47L746.3 233.16Z" fill="#F5EDFF" stroke="#5100CD" stroke-linecap="round" stroke-linejoin="round"/>
<path d="M738.54 237.65L735.64 235.96L738.54 234.24L741.44 235.96L738.54 237.65Z" fill="#F5EDFF" stroke="#5100CD" stroke-linecap="round" stroke-linejoin="round"/>
<path d="M730.79 242.14L727.89 240.46L730.79 238.73L733.69 240.46L730.79 242.14Z" fill="#F5EDFF" stroke="#5100CD" stroke-linecap="round" stroke-linejoin="round"/>
<path d="M684.65 228.66L687.55 226.97L684.65 225.25L681.75 226.97L684.65 228.66Z" fill="#F5EDFF" stroke="#5100CD" stroke-linecap="round" stroke-linejoin="round"/>
<path d="M692.41 233.16L695.31 231.47L692.41 229.74L689.51 231.47L692.41 233.16Z" fill="#F5EDFF" stroke="#5100CD" stroke-linecap="round" stroke-linejoin="round"/>
<path d="M700.16 237.65L703.06 235.96L700.16 234.24L697.26 235.96L700.16 237.65Z" fill="#F5EDFF" stroke="#5100CD" stroke-linecap="round" stroke-linejoin="round"/>
<path d="M707.92 242.14L710.82 240.46L707.92 238.73L705.02 240.46L707.92 242.14Z" fill="#F5EDFF" stroke="#5100CD" stroke-linecap="round" stroke-linejoin="round"/>
<path d="M719.35 241.9L759.29 218.69L719.35 194.94L679.41 218.69L719.35 241.9Z" fill="#F5EDFF" stroke="#5100CD" stroke-linecap="round" stroke-linejoin="round"/>
<path d="M759.3 218.69V222.01L719.36 245.22V241.9L759.3 218.69Z" fill="#5100CD" stroke="#5100CD" stroke-linecap="round" stroke-linejoin="round"/>
<path d="M679.41 218.69V222.01L719.35 245.22V241.9L679.41 218.69Z" fill="#F5EDFF" stroke="#5100CD" stroke-linecap="round" stroke-linejoin="round"/>
<path d="M756.06 218.42L719.35 239.75L682.64 218.42L719.35 197.1L756.06 218.42Z" fill="#F5EDFF"/>
<path d="M719.99 219.85L720.14 219.76C720.46 219.58 720.78 219.48 721.1 219.48C721.43 219.48 721.75 219.57 722.06 219.75C722.41 219.95 722.57 220.15 722.55 220.34C722.53 220.53 722.32 220.74 721.92 220.97L719.27 222.51C718.86 222.75 718.5 222.87 718.18 222.88C717.86 222.89 717.52 222.8 717.17 222.59C716.83 222.39 716.67 222.2 716.69 222.02C716.72 221.84 716.93 221.63 717.33 221.39L717.64 221.21L716.25 220.82L712.45 223.03L713.1 223.85L713.41 223.67C713.81 223.44 714.17 223.31 714.49 223.3C714.81 223.29 715.14 223.38 715.48 223.57C715.83 223.77 715.99 223.97 715.97 224.15C715.95 224.34 715.74 224.55 715.34 224.78L713.07 226.1C712.66 226.34 712.3 226.46 711.98 226.47C711.66 226.47 711.32 226.39 710.98 226.18C710.67 226 710.51 225.81 710.52 225.62C710.52 225.43 710.69 225.24 711 225.06L711.15 224.97L706.94 219.78L706.24 220.19C705.84 220.42 705.48 220.54 705.15 220.56C704.83 220.57 704.49 220.48 704.15 220.28C703.8 220.08 703.64 219.88 703.66 219.7C703.68 219.51 703.89 219.3 704.29 219.07L707.59 217.15C708.11 216.85 708.76 216.8 709.54 217L709.57 217.02L720.01 219.84L719.99 219.85ZM708.81 218.72L711.25 221.62L713.8 220.14L708.81 218.72Z" fill="#5100CD"/>
<path d="M720.94 211.67L727.51 215.49L728.99 214.63C729.39 214.4 729.75 214.27 730.07 214.26C730.39 214.25 730.72 214.34 731.06 214.53C731.4 214.73 731.56 214.92 731.54 215.12C731.52 215.31 731.31 215.52 730.92 215.75L725.69 218.79C725.29 219.02 724.93 219.14 724.6 219.16C724.27 219.18 723.94 219.08 723.59 218.88C723.25 218.68 723.09 218.49 723.11 218.31C723.14 218.13 723.35 217.92 723.75 217.68L725.23 216.82L718.66 213L717.18 213.86C716.78 214.09 716.42 214.21 716.09 214.23C715.77 214.24 715.43 214.15 715.09 213.95C714.74 213.75 714.58 213.56 714.6 213.37C714.63 213.19 714.84 212.98 715.24 212.74L720.47 209.7C720.89 209.46 721.25 209.33 721.56 209.32C721.87 209.32 722.2 209.41 722.55 209.61C722.89 209.81 723.05 210 723.03 210.19C723.01 210.38 722.8 210.59 722.4 210.82L720.92 211.68L720.94 211.67Z" fill="#5100CD"/>
</svg>
