<svg width="475" height="380" viewBox="0 0 475 380" fill="none" xmlns="http://www.w3.org/2000/svg">
<path d="M321.95 135.16V66.2695" stroke="#5100CD" stroke-linecap="round" stroke-linejoin="round"/>
<path d="M150.08 95.0997L197.66 67.4697" stroke="#5100CD" stroke-linecap="round" stroke-linejoin="round"/>
<path d="M197.66 67.46L321.95 135.15" stroke="#5100CD" stroke-linecap="round" stroke-linejoin="round"/>
<path d="M221.84 81.4091L224.64 79.7791L221.84 78.1191L219.03 79.7791L221.84 81.4091Z" fill="#F5EDFF" stroke="#5100CD" stroke-linecap="round" stroke-linejoin="round"/>
<path d="M221.84 84.3393V81.4093L224.64 79.7793V82.7393L221.84 84.3493V84.3393Z" fill="#5100CD" stroke="#5100CD" stroke-linecap="round" stroke-linejoin="round"/>
<path d="M219.04 82.6695V79.7695L221.85 81.3995V84.3295L219.04 82.6695Z" fill="#F5EDFF" stroke="#5100CD" stroke-linecap="round" stroke-linejoin="round"/>
<path d="M321.95 135.159L324.75 133.529L321.95 131.869L319.14 133.529L321.95 135.159Z" fill="#F5EDFF" stroke="#5100CD" stroke-linecap="round" stroke-linejoin="round"/>
<path d="M321.95 138.08V135.15L324.75 133.52V136.48L321.95 138.09V138.08Z" fill="#5100CD" stroke="#5100CD" stroke-linecap="round" stroke-linejoin="round"/>
<path d="M319.14 136.42V133.52L321.95 135.15V138.08L319.14 136.42Z" fill="#F5EDFF" stroke="#5100CD" stroke-linecap="round" stroke-linejoin="round"/>
<path d="M197.67 70.3996V67.4696L200.47 65.8496V68.7996L197.67 70.4096V70.3996Z" fill="#5100CD" stroke="#5100CD" stroke-linecap="round" stroke-linejoin="round"/>
<path d="M194.86 68.7299V65.8398L197.67 67.4598V70.3898L194.86 68.7299Z" fill="#F5EDFF" stroke="#5100CD" stroke-linecap="round" stroke-linejoin="round"/>
<path d="M197.67 67.4697L200.47 65.8497L197.67 64.1797L194.86 65.8497L197.67 67.4697Z" fill="#F5EDFF" stroke="#5100CD" stroke-linecap="round" stroke-linejoin="round"/>
<path d="M257.19 317.14L157.8 259.42" stroke="#5100CD" stroke-linecap="round" stroke-linejoin="round"/>
<path d="M257.19 317.33L323.35 278.91" stroke="#5100CD" stroke-linecap="round" stroke-linejoin="round"/>
<path d="M121.23 315.739L187.39 277.319" stroke="#5100CD" stroke-linecap="round" stroke-linejoin="round"/>
<path d="M203.87 285.569L270.66 246.779" stroke="#5100CD" stroke-linecap="round" stroke-linejoin="round"/>
<path d="M257.19 317.369L260.57 315.399L257.19 313.399L253.81 315.399L257.19 317.369Z" fill="#F5EDFF" stroke="#5100CD" stroke-linecap="round" stroke-linejoin="round"/>
<path d="M257.19 320.909V317.369L260.57 315.399V318.969L257.19 320.919V320.909Z" fill="#5100CD" stroke="#5100CD" stroke-linecap="round" stroke-linejoin="round"/>
<path d="M253.81 318.899V315.399L257.19 317.369V320.909L253.81 318.899Z" fill="#F5EDFF" stroke="#5100CD" stroke-linecap="round" stroke-linejoin="round"/>
<path d="M222.11 297.499L225.49 295.529L222.11 293.529L218.73 295.529L222.11 297.499Z" fill="#F5EDFF" stroke="#5100CD" stroke-linecap="round" stroke-linejoin="round"/>
<path d="M222.11 301.039V297.499L225.49 295.529V299.099L222.11 301.049V301.039Z" fill="#5100CD" stroke="#5100CD" stroke-linecap="round" stroke-linejoin="round"/>
<path d="M218.72 299.029V295.529L222.1 297.499V301.039L218.72 299.029Z" fill="#F5EDFF" stroke="#5100CD" stroke-linecap="round" stroke-linejoin="round"/>
<path d="M203.87 286.419L207.25 284.449L203.87 282.449L200.49 284.449L203.87 286.419Z" fill="#F5EDFF" stroke="#5100CD" stroke-linecap="round" stroke-linejoin="round"/>
<path d="M203.87 289.959V286.419L207.25 284.449V288.019L203.87 289.969V289.959Z" fill="#5100CD" stroke="#5100CD" stroke-linecap="round" stroke-linejoin="round"/>
<path d="M200.49 287.949V284.449L203.87 286.419V289.959L200.49 287.949Z" fill="#F5EDFF" stroke="#5100CD" stroke-linecap="round" stroke-linejoin="round"/>
<path d="M256.05 255.699L259.43 253.729L256.05 251.729L252.67 253.729L256.05 255.699Z" fill="#F5EDFF" stroke="#5100CD" stroke-linecap="round" stroke-linejoin="round"/>
<path d="M256.05 259.249V255.709L259.43 253.739V257.309L256.05 259.259V259.249Z" fill="#5100CD" stroke="#5100CD" stroke-linecap="round" stroke-linejoin="round"/>
<path d="M252.67 257.23V253.729L256.05 255.699V259.239L252.67 257.23Z" fill="#F5EDFF" stroke="#5100CD" stroke-linecap="round" stroke-linejoin="round"/>
<path d="M187.39 277.31L190.77 275.34L187.39 273.34L184.01 275.34L187.39 277.31Z" fill="#F5EDFF" stroke="#5100CD" stroke-linecap="round" stroke-linejoin="round"/>
<path d="M187.39 280.85V277.31L190.77 275.34V278.91L187.39 280.86V280.85Z" fill="#5100CD" stroke="#5100CD" stroke-linecap="round" stroke-linejoin="round"/>
<path d="M184.01 278.84V275.34L187.39 277.31V280.85L184.01 278.84Z" fill="#F5EDFF" stroke="#5100CD" stroke-linecap="round" stroke-linejoin="round"/>
<path d="M145.88 301.26L149.26 299.29L145.88 297.29L142.5 299.29L145.88 301.26Z" fill="#F5EDFF" stroke="#5100CD" stroke-linecap="round" stroke-linejoin="round"/>
<path d="M145.88 304.8V301.26L149.26 299.29V302.86L145.88 304.81V304.8Z" fill="#5100CD" stroke="#5100CD" stroke-linecap="round" stroke-linejoin="round"/>
<path d="M142.49 302.79V299.29L145.87 301.26V304.8L142.49 302.79Z" fill="#F5EDFF" stroke="#5100CD" stroke-linecap="round" stroke-linejoin="round"/>
<path d="M270.66 246.4V177.51" stroke="#5100CD" stroke-linecap="round" stroke-linejoin="round"/>
<path d="M270.66 246.78L274.04 244.81L270.66 242.81L267.28 244.81L270.66 246.78Z" fill="#F5EDFF" stroke="#5100CD" stroke-linecap="round" stroke-linejoin="round"/>
<path d="M270.66 250.32V246.78L274.04 244.81V248.38L270.66 250.33V250.32Z" fill="#5100CD" stroke="#5100CD" stroke-linecap="round" stroke-linejoin="round"/>
<path d="M267.28 248.31V244.81L270.66 246.78V250.32L267.28 248.31Z" fill="#F5EDFF" stroke="#5100CD" stroke-linecap="round" stroke-linejoin="round"/>
<path d="M90.75 185.99V201.32V216.65L106.08 207.75V192.42V177.08L90.75 185.99Z" fill="#DBC8F6" stroke="#5100CD" stroke-linecap="round" stroke-linejoin="round"/>
<path d="M75.4199 161.75L90.7499 152.85L152.08 188.47L136.75 197.37L75.4199 161.75Z" fill="#F5EDFF" stroke="#5100CD" stroke-linecap="round" stroke-linejoin="round"/>
<path d="M121.41 111.81L136.75 102.91V118.24L121.41 127.14V111.81Z" fill="#DBC8F6" stroke="#5100CD" stroke-linecap="round" stroke-linejoin="round"/>
<path d="M136.75 151.381L121.41 142.471L106.08 133.571L90.7499 124.661L75.4199 115.761V131.091L90.7499 140.001L106.08 148.901L121.41 157.811L136.75 166.711V182.041V197.371L121.41 188.471L106.08 179.561L90.7499 170.661L75.4199 161.751V177.081V192.421V207.751V223.081L90.7499 231.981L106.08 240.891L121.41 249.801L136.75 258.701L152.08 267.611V252.271L136.75 243.371L121.41 234.461L106.08 225.561L90.7499 216.651V201.321V185.991L106.08 194.901L121.41 203.801L136.75 212.711L152.08 221.611V206.281V190.951V175.621V160.291L136.75 151.381Z" fill="#F5EDFF" stroke="#5100CD" stroke-linecap="round" stroke-linejoin="round"/>
<path d="M167.41 123.2L152.08 114.29L136.75 105.39L121.41 96.4803L106.08 87.5703V102.91V118.24L121.41 127.14V111.81L136.75 120.72L152.08 129.62L167.41 138.53L182.74 147.43V132.1L167.41 123.2Z" fill="#F5EDFF" stroke="#5100CD" stroke-linecap="round" stroke-linejoin="round"/>
<path d="M182.74 147.43V132.1L198.07 123.2V138.53L182.74 147.43Z" fill="#DBC8F6" stroke="#5100CD" stroke-linecap="round" stroke-linejoin="round"/>
<path d="M167.41 169.19V184.52V199.85V215.18V230.52L182.74 239.42V224.09V208.76V193.43V178.1L167.41 169.19Z" fill="#F5EDFF" stroke="#5100CD" stroke-linecap="round" stroke-linejoin="round"/>
<path d="M182.74 178.1V193.43V208.76V224.09V239.42L198.07 230.52V215.18V199.85V184.52V169.19L182.74 178.1Z" fill="#DBC8F6" stroke="#5100CD" stroke-linecap="round" stroke-linejoin="round"/>
<path d="M152.08 160.29V175.62V190.95V206.28V221.61L167.41 212.71V197.37V182.04V166.71V151.38L152.08 160.29Z" fill="#DBC8F6" stroke="#5100CD" stroke-linecap="round" stroke-linejoin="round"/>
<path d="M152.08 252.27L167.41 243.37V258.7L152.08 267.61V252.27Z" fill="#DBC8F6" stroke="#5100CD" stroke-linecap="round" stroke-linejoin="round"/>
<path d="M198.07 169.19L182.74 160.28L167.41 169.19L182.74 178.1L198.07 169.19Z" fill="#F5EDFF" stroke="#5100CD" stroke-linecap="round" stroke-linejoin="round"/>
<path d="M106.08 87.5699L121.41 78.6699L198.07 123.2L182.74 132.1L106.08 87.5699Z" fill="#F5EDFF" stroke="#5100CD" stroke-linecap="round" stroke-linejoin="round"/>
<path d="M75.4199 115.76L90.7499 106.85L167.41 151.38L152.08 160.29L75.4199 115.76Z" fill="#F5EDFF" stroke="#5100CD" stroke-linecap="round" stroke-linejoin="round"/>
<path d="M90.75 216.65L106.08 207.75L167.41 243.37L152.08 252.27L90.75 216.65Z" fill="#F5EDFF" stroke="#5100CD" stroke-linecap="round" stroke-linejoin="round"/>
<path d="M321.95 38.3999V96.9699L359.54 76.2999L321.95 38.3999Z" fill="#F5EDFF" stroke="#5100CD" stroke-linecap="round" stroke-linejoin="round"/>
<path d="M321.95 114.18V96.9698L359.54 76.2998L321.95 114.18Z" fill="#DBC8F6" stroke="#5100CD" stroke-linecap="round" stroke-linejoin="round"/>
<path d="M321.95 38.3999V96.9699L284.36 76.2999L321.95 38.3999Z" fill="#F5EDFF" stroke="#5100CD" stroke-linecap="round" stroke-linejoin="round"/>
<path d="M321.95 114.18V96.9698L284.36 76.2998L321.95 114.18Z" fill="#F5EDFF" stroke="#5100CD" stroke-linecap="round" stroke-linejoin="round"/>
<path d="M316.43 252.13L301.62 276.24L321.95 303.01L365.5 316.76L406.77 309.43L421.58 285.32L401.26 258.55L357.7 244.8L316.43 252.13Z" stroke="#5100CD" stroke-linecap="round" stroke-linejoin="round"/>
<path d="M360.63 227.99L404.19 241.74L424.52 268.51L409.71 292.62L368.44 299.95L324.88 286.2L304.55 259.43L319.36 235.32L360.63 227.99ZM335.99 245.87L326.63 261.1L339.47 278.01L366.99 286.7L393.06 282.07L402.42 266.84L389.58 249.93L362.06 241.24L335.99 245.87Z" fill="#5100CD" stroke="#5100CD" stroke-linecap="round" stroke-linejoin="round"/>
<path d="M304.55 259.431L301.62 276.241L321.95 303.011L324.87 286.201L304.55 259.431Z" fill="#F5EDFF" stroke="#5100CD" stroke-linecap="round" stroke-linejoin="round"/>
<path d="M368.43 299.95L365.5 316.76L406.77 309.43L409.7 292.62L368.43 299.95Z" fill="#DBC8F6" stroke="#5100CD" stroke-linecap="round" stroke-linejoin="round"/>
<path d="M324.87 286.2L321.95 303.01L365.5 316.76L368.43 299.95L324.87 286.2Z" fill="#F5EDFF" stroke="#5100CD" stroke-linecap="round" stroke-linejoin="round"/>
<path d="M409.7 292.62L406.77 309.43L421.58 285.32L424.51 268.51L409.7 292.62Z" fill="#DBC8F6" stroke="#5100CD" stroke-linecap="round" stroke-linejoin="round"/>
<path d="M335.99 245.87L333.06 262.67L359.14 258.04L362.06 241.24L335.99 245.87Z" fill="#DBC8F6" stroke="#5100CD" stroke-linecap="round" stroke-linejoin="round"/>
<path d="M386.66 266.721L389.58 249.931L402.42 266.841L395.35 278.151L386.66 266.721Z" fill="#F5EDFF" stroke="#5100CD" stroke-linecap="round" stroke-linejoin="round"/>
<path d="M330.62 266.36L333.06 262.67L335.99 245.87L326.63 261.1L330.62 266.36Z" fill="#DBC8F6" stroke="#5100CD" stroke-linecap="round" stroke-linejoin="round"/>
<path d="M362.06 241.24L359.14 258.04L386.66 266.72L389.58 249.93L362.06 241.24Z" fill="#F5EDFF" stroke="#5100CD" stroke-linecap="round" stroke-linejoin="round"/>
<path d="M72.9497 290.921V299.271L81.2997 294.451V286.101L72.9497 290.921Z" fill="#F5EDFF" stroke="#5100CD" stroke-linecap="round" stroke-linejoin="round"/>
<path d="M89.6596 290.921V299.271L81.3096 294.451V286.101L89.6596 290.921Z" fill="#F5EDFF" stroke="#5100CD" stroke-linecap="round" stroke-linejoin="round"/>
<path d="M81.2997 304.061V295.701L72.9497 290.881V299.241L81.2997 304.061Z" fill="#F5EDFF" stroke="#5100CD" stroke-linecap="round" stroke-linejoin="round"/>
<path d="M81.2998 304.061V295.701L89.6498 290.881V299.241L81.2998 304.061Z" fill="#F5EDFF" stroke="#5100CD" stroke-linecap="round" stroke-linejoin="round"/>
<path d="M72.9497 290.881L81.3097 286.101L89.6497 290.881L81.2997 295.701L72.9497 290.881Z" fill="#F5EDFF" stroke="#5100CD" stroke-linecap="round" stroke-linejoin="round"/>
<path d="M83.5298 297.091V305.441L91.8798 300.621V292.271L83.5298 297.091Z" fill="#F5EDFF" stroke="#5100CD" stroke-linecap="round" stroke-linejoin="round"/>
<path d="M100.25 297.091V305.441L91.8999 300.621V292.271L100.25 297.091Z" fill="#F5EDFF" stroke="#5100CD" stroke-linecap="round" stroke-linejoin="round"/>
<path d="M91.8895 310.231V301.871L83.5396 297.051V305.411L91.8895 310.231Z" fill="#F5EDFF" stroke="#5100CD" stroke-linecap="round" stroke-linejoin="round"/>
<path d="M91.8896 310.231V301.871L100.24 297.051V305.411L91.8896 310.231Z" fill="#F5EDFF" stroke="#5100CD" stroke-linecap="round" stroke-linejoin="round"/>
<path d="M83.5396 297.051L91.8996 292.271L100.24 297.051L91.8895 301.871L83.5396 297.051Z" fill="#F5EDFF" stroke="#5100CD" stroke-linecap="round" stroke-linejoin="round"/>
<path d="M94.1201 303.26V311.61L102.47 306.79V298.44L94.1201 303.26Z" fill="#F5EDFF" stroke="#5100CD" stroke-linecap="round" stroke-linejoin="round"/>
<path d="M110.83 303.26V311.61L102.48 306.79V298.44L110.83 303.26Z" fill="#F5EDFF" stroke="#5100CD" stroke-linecap="round" stroke-linejoin="round"/>
<path d="M102.47 316.41V308.05L94.1201 303.23V311.59L102.47 316.41Z" fill="#F5EDFF" stroke="#5100CD" stroke-linecap="round" stroke-linejoin="round"/>
<path d="M102.47 316.41V308.05L110.82 303.23V311.59L102.47 316.41Z" fill="#F5EDFF" stroke="#5100CD" stroke-linecap="round" stroke-linejoin="round"/>
<path d="M94.1201 303.23L102.48 298.45L110.82 303.23L102.47 308.05L94.1201 303.23Z" fill="#F5EDFF" stroke="#5100CD" stroke-linecap="round" stroke-linejoin="round"/>
<path d="M62.3599 297.091V305.441L70.7099 300.621V292.271L62.3599 297.091Z" fill="#F5EDFF" stroke="#5100CD" stroke-linecap="round" stroke-linejoin="round"/>
<path d="M79.08 297.091V305.441L70.73 300.621V292.271L79.08 297.091Z" fill="#F5EDFF" stroke="#5100CD" stroke-linecap="round" stroke-linejoin="round"/>
<path d="M70.7196 310.231V301.871L62.3696 297.051V305.411L70.7196 310.231Z" fill="#F5EDFF" stroke="#5100CD" stroke-linecap="round" stroke-linejoin="round"/>
<path d="M70.7197 310.231V301.871L79.0697 297.051V305.411L70.7197 310.231Z" fill="#F5EDFF" stroke="#5100CD" stroke-linecap="round" stroke-linejoin="round"/>
<path d="M62.3696 297.051L70.7296 292.271L79.0696 297.051L70.7196 301.871L62.3696 297.051Z" fill="#F5EDFF" stroke="#5100CD" stroke-linecap="round" stroke-linejoin="round"/>
<path d="M72.9497 303.26V311.61L81.2997 306.79V298.44L72.9497 303.26Z" fill="#F5EDFF" stroke="#5100CD" stroke-linecap="round" stroke-linejoin="round"/>
<path d="M89.6596 303.26V311.61L81.3096 306.79V298.44L89.6596 303.26Z" fill="#F5EDFF" stroke="#5100CD" stroke-linecap="round" stroke-linejoin="round"/>
<path d="M81.2997 316.41V308.05L72.9497 303.23V311.59L81.2997 316.41Z" fill="#F5EDFF" stroke="#5100CD" stroke-linecap="round" stroke-linejoin="round"/>
<path d="M81.2998 316.41V308.05L89.6498 303.23V311.59L81.2998 316.41Z" fill="#F5EDFF" stroke="#5100CD" stroke-linecap="round" stroke-linejoin="round"/>
<path d="M72.9497 303.23L81.3097 298.45L89.6497 303.23L81.2997 308.05L72.9497 303.23Z" fill="#F5EDFF" stroke="#5100CD" stroke-linecap="round" stroke-linejoin="round"/>
<path d="M83.5298 309.44V317.79L91.8798 312.97V304.62L83.5298 309.44Z" fill="#F5EDFF" stroke="#5100CD" stroke-linecap="round" stroke-linejoin="round"/>
<path d="M100.25 309.44V317.79L91.8999 312.97V304.62L100.25 309.44Z" fill="#F5EDFF" stroke="#5100CD" stroke-linecap="round" stroke-linejoin="round"/>
<path d="M91.8895 322.58V314.22L83.5396 309.4V317.76L91.8895 322.58Z" fill="#F5EDFF" stroke="#5100CD" stroke-linecap="round" stroke-linejoin="round"/>
<path d="M91.8896 322.58V314.22L100.24 309.4V317.76L91.8896 322.58Z" fill="#F5EDFF" stroke="#5100CD" stroke-linecap="round" stroke-linejoin="round"/>
<path d="M83.5396 309.4L91.8996 304.62L100.24 309.4L91.8895 314.22L83.5396 309.4Z" fill="#F5EDFF" stroke="#5100CD" stroke-linecap="round" stroke-linejoin="round"/>
<path d="M51.7798 303.26V311.61L60.1298 306.79V298.44L51.7798 303.26Z" fill="#F5EDFF" stroke="#5100CD" stroke-linecap="round" stroke-linejoin="round"/>
<path d="M68.4896 303.26V311.61L60.1396 306.79V298.44L68.4896 303.26Z" fill="#F5EDFF" stroke="#5100CD" stroke-linecap="round" stroke-linejoin="round"/>
<path d="M60.1298 316.41V308.05L51.7798 303.23V311.59L60.1298 316.41Z" fill="#F5EDFF" stroke="#5100CD" stroke-linecap="round" stroke-linejoin="round"/>
<path d="M60.1396 316.41V308.05L68.4896 303.23V311.59L60.1396 316.41Z" fill="#F5EDFF" stroke="#5100CD" stroke-linecap="round" stroke-linejoin="round"/>
<path d="M51.7798 303.23L60.1398 298.45L68.4798 303.23L60.1298 308.05L51.7798 303.23Z" fill="#F5EDFF" stroke="#5100CD" stroke-linecap="round" stroke-linejoin="round"/>
<path d="M62.3599 309.44V317.79L70.7099 312.97V304.62L62.3599 309.44Z" fill="#F5EDFF" stroke="#5100CD" stroke-linecap="round" stroke-linejoin="round"/>
<path d="M79.08 309.44V317.79L70.73 312.97V304.62L79.08 309.44Z" fill="#F5EDFF" stroke="#5100CD" stroke-linecap="round" stroke-linejoin="round"/>
<path d="M70.7196 322.58V314.22L62.3696 309.4V317.76L70.7196 322.58Z" fill="#F5EDFF" stroke="#5100CD" stroke-linecap="round" stroke-linejoin="round"/>
<path d="M70.7197 322.58V314.22L79.0697 309.4V317.76L70.7197 322.58Z" fill="#F5EDFF" stroke="#5100CD" stroke-linecap="round" stroke-linejoin="round"/>
<path d="M62.3696 309.4L70.7296 304.62L79.0696 309.4L70.7196 314.22L62.3696 309.4Z" fill="#F5EDFF" stroke="#5100CD" stroke-linecap="round" stroke-linejoin="round"/>
<path d="M72.9497 315.611V323.961L81.2997 319.141V310.791L72.9497 315.611Z" fill="#F5EDFF" stroke="#5100CD" stroke-linecap="round" stroke-linejoin="round"/>
<path d="M89.6596 315.611V323.961L81.3096 319.141V310.791L89.6596 315.611Z" fill="#F5EDFF" stroke="#5100CD" stroke-linecap="round" stroke-linejoin="round"/>
<path d="M81.2997 328.751V320.391L72.9497 315.571V323.931L81.2997 328.751Z" fill="#F5EDFF" stroke="#5100CD" stroke-linecap="round" stroke-linejoin="round"/>
<path d="M81.2998 328.751V320.391L89.6498 315.571V323.931L81.2998 328.751Z" fill="#F5EDFF" stroke="#5100CD" stroke-linecap="round" stroke-linejoin="round"/>
<path d="M72.9497 315.571L81.3097 310.791L89.6497 315.571L81.2997 320.391L72.9497 315.571Z" fill="#F5EDFF" stroke="#5100CD" stroke-linecap="round" stroke-linejoin="round"/>
<path d="M41.1499 309.44V317.79L49.4999 312.97V304.62L41.1499 309.44Z" fill="#F5EDFF" stroke="#5100CD" stroke-linecap="round" stroke-linejoin="round"/>
<path d="M57.87 309.44V317.79L49.52 312.97V304.62L57.87 309.44Z" fill="#F5EDFF" stroke="#5100CD" stroke-linecap="round" stroke-linejoin="round"/>
<path d="M49.5097 322.58V314.22L41.1597 309.4V317.76L49.5097 322.58Z" fill="#F5EDFF" stroke="#5100CD" stroke-linecap="round" stroke-linejoin="round"/>
<path d="M49.5098 322.58V314.22L57.8598 309.4V317.76L49.5098 322.58Z" fill="#F5EDFF" stroke="#5100CD" stroke-linecap="round" stroke-linejoin="round"/>
<path d="M41.1597 309.4L49.5197 304.62L57.8597 309.4L49.5097 314.22L41.1597 309.4Z" fill="#F5EDFF" stroke="#5100CD" stroke-linecap="round" stroke-linejoin="round"/>
<path d="M51.7397 315.611V323.961L60.0897 319.141V310.791L51.7397 315.611Z" fill="#F5EDFF" stroke="#5100CD" stroke-linecap="round" stroke-linejoin="round"/>
<path d="M68.4496 315.611V323.961L60.0996 319.141V310.791L68.4496 315.611Z" fill="#F5EDFF" stroke="#5100CD" stroke-linecap="round" stroke-linejoin="round"/>
<path d="M60.0995 328.751V320.391L51.7495 315.571V323.931L60.0995 328.751Z" fill="#F5EDFF" stroke="#5100CD" stroke-linecap="round" stroke-linejoin="round"/>
<path d="M60.0996 328.751V320.391L68.4496 315.571V323.931L60.0996 328.751Z" fill="#F5EDFF" stroke="#5100CD" stroke-linecap="round" stroke-linejoin="round"/>
<path d="M51.7495 315.571L60.1095 310.791L68.4495 315.571L60.0995 320.391L51.7495 315.571Z" fill="#F5EDFF" stroke="#5100CD" stroke-linecap="round" stroke-linejoin="round"/>
<path d="M62.3198 321.781V330.131L70.6698 325.311V316.961L62.3198 321.781Z" fill="#F5EDFF" stroke="#5100CD" stroke-linecap="round" stroke-linejoin="round"/>
<path d="M79.0399 321.781V330.131L70.6899 325.311V316.961L79.0399 321.781Z" fill="#F5EDFF" stroke="#5100CD" stroke-linecap="round" stroke-linejoin="round"/>
<path d="M70.6796 334.921V326.561L62.3296 321.741V330.101L70.6796 334.921Z" fill="#F5EDFF" stroke="#5100CD" stroke-linecap="round" stroke-linejoin="round"/>
<path d="M70.6797 334.921V326.561L79.0297 321.741V330.101L70.6797 334.921Z" fill="#F5EDFF" stroke="#5100CD" stroke-linecap="round" stroke-linejoin="round"/>
<path d="M62.3296 321.741L70.6896 316.961L79.0296 321.741L70.6796 326.561L62.3296 321.741Z" fill="#F5EDFF" stroke="#5100CD" stroke-linecap="round" stroke-linejoin="round"/>
<path d="M113.06 304.61V312.96L121.41 317.78V309.43L113.06 304.61Z" fill="#F5EDFF" stroke="#5100CD" stroke-linecap="round" stroke-linejoin="round"/>
<path d="M113.05 304.61V312.96L104.7 317.78V309.43L113.05 304.61Z" fill="#F5EDFF" stroke="#5100CD" stroke-linecap="round" stroke-linejoin="round"/>
<path d="M121.41 317.751V309.391L113.06 314.211V322.571L121.41 317.751Z" fill="#F1E9FD" stroke="#5100CD" stroke-linecap="round" stroke-linejoin="round"/>
<path d="M104.709 317.751V309.391L113.059 314.211V322.571L104.709 317.751Z" fill="#F5EDFF" stroke="#5100CD" stroke-linecap="round" stroke-linejoin="round"/>
<path d="M113.059 314.22L104.709 309.4L113.049 304.62L121.409 309.4L113.059 314.22Z" fill="#F5EDFF" stroke="#5100CD" stroke-linecap="round" stroke-linejoin="round"/>
<path d="M102.48 310.78V319.13L110.83 323.95V315.6L102.48 310.78Z" fill="#F5EDFF" stroke="#5100CD" stroke-linecap="round" stroke-linejoin="round"/>
<path d="M102.47 310.78V319.13L94.1201 323.95V315.6L102.47 310.78Z" fill="#F5EDFF" stroke="#5100CD" stroke-linecap="round" stroke-linejoin="round"/>
<path d="M110.82 323.921V315.561L102.47 320.381V328.741L110.82 323.921Z" fill="#F1E9FD" stroke="#5100CD" stroke-linecap="round" stroke-linejoin="round"/>
<path d="M94.1201 323.921V315.561L102.47 320.381V328.741L94.1201 323.921Z" fill="#F5EDFF" stroke="#5100CD" stroke-linecap="round" stroke-linejoin="round"/>
<path d="M102.47 320.39L94.1201 315.57L102.46 310.79L110.82 315.57L102.47 320.39Z" fill="#F5EDFF" stroke="#5100CD" stroke-linecap="round" stroke-linejoin="round"/>
<path d="M91.8896 316.961V325.311L100.24 330.131V321.781L91.8896 316.961Z" fill="#F5EDFF" stroke="#5100CD" stroke-linecap="round" stroke-linejoin="round"/>
<path d="M91.8798 316.961V325.311L83.5298 330.131V321.781L91.8798 316.961Z" fill="#F5EDFF" stroke="#5100CD" stroke-linecap="round" stroke-linejoin="round"/>
<path d="M100.24 330.101V321.741L91.8896 326.561V334.921L100.24 330.101Z" fill="#F1E9FD" stroke="#5100CD" stroke-linecap="round" stroke-linejoin="round"/>
<path d="M83.5396 330.101V321.741L91.8895 326.561V334.921L83.5396 330.101Z" fill="#F5EDFF" stroke="#5100CD" stroke-linecap="round" stroke-linejoin="round"/>
<path d="M91.8895 326.561L83.5396 321.741L91.8795 316.961L100.24 321.741L91.8895 326.561Z" fill="#F5EDFF" stroke="#5100CD" stroke-linecap="round" stroke-linejoin="round"/>
<path d="M72.9097 327.951V336.301L81.2597 331.481V323.131L72.9097 327.951Z" fill="#F5EDFF" stroke="#5100CD" stroke-linecap="round" stroke-linejoin="round"/>
<path d="M89.6195 327.951V336.301L81.2695 331.481V323.131L89.6195 327.951Z" fill="#F5EDFF" stroke="#5100CD" stroke-linecap="round" stroke-linejoin="round"/>
<path d="M81.2694 341.091V332.731L72.9194 327.911V336.271L81.2694 341.091Z" fill="#F5EDFF" stroke="#5100CD" stroke-linecap="round" stroke-linejoin="round"/>
<path d="M81.2695 341.091V332.731L89.6195 327.911V336.271L81.2695 341.091Z" fill="#F1E9FD" stroke="#5100CD" stroke-linecap="round" stroke-linejoin="round"/>
<path d="M72.9097 327.911L81.2697 323.131L89.6097 327.911L81.2597 332.731L72.9097 327.911Z" fill="#F5EDFF" stroke="#5100CD" stroke-linecap="round" stroke-linejoin="round"/>
<path d="M81.2601 313.28L111.46 295.73L81.2601 277.78L51.0601 295.73L81.2601 313.28Z" fill="#F5EDFF" stroke="#5100CD" stroke-linecap="round" stroke-linejoin="round"/>
<path d="M68.75 295.61L71.35 297.12C74.61 295.18 81.25 291.23 81.25 291.23V288.17L68.75 295.61Z" fill="#F1E9FD" stroke="#5100CD" stroke-linecap="round" stroke-linejoin="round"/>
<path d="M81.2598 288.18V291.24L91.1598 297.13L93.7598 295.61L81.2598 288.18Z" fill="#F5EDFF" stroke="#5100CD" stroke-linecap="round" stroke-linejoin="round"/>
<path d="M91.1599 297.13L81.2599 291.24C81.2599 291.24 74.6199 295.19 71.3599 297.13L81.2599 302.88L91.1599 297.13Z" fill="#F5EDFF" stroke="#5100CD" stroke-linecap="round" stroke-linejoin="round"/>
<path d="M81.2603 326.31V313.28L111.46 295.73V308.96L81.2603 326.31Z" fill="#DBC8F6" stroke="#5100CD" stroke-linecap="round" stroke-linejoin="round"/>
<path d="M51.0601 308.35V295.73L81.2601 313.28V326.31L51.0601 308.35Z" fill="#F5EDFF" stroke="#5100CD" stroke-linecap="round" stroke-linejoin="round"/>
<path d="M270.53 183.66C288.772 183.66 303.56 174.894 303.56 164.08C303.56 153.266 288.772 144.5 270.53 144.5C252.288 144.5 237.5 153.266 237.5 164.08C237.5 174.894 252.288 183.66 270.53 183.66Z" fill="#F5EDFF" stroke="#5100CD" stroke-linecap="round" stroke-linejoin="round"/>
<path d="M281.43 182.56L276.07 218.44C276.32 218.31 276.55 218.18 276.77 218.03L284.41 181.85C283.44 182.12 282.45 182.35 281.44 182.56H281.43Z" fill="#F5EDFF" stroke="#5100CD" stroke-linecap="round" stroke-linejoin="round"/>
<path d="M239.21 170.28L262.38 215.82C263.13 217.79 265.86 219.31 269.27 219.61L264.07 183.26C252.39 181.89 242.92 176.86 239.21 170.27V170.28Z" fill="#F5EDFF" stroke="#5100CD" stroke-linecap="round" stroke-linejoin="round"/>
<path d="M272.42 183.62V219.55C273.46 219.41 274.44 219.15 275.29 218.8L276.04 183.38C274.85 183.5 273.65 183.58 272.42 183.62Z" fill="#F5EDFF" stroke="#5100CD" stroke-linecap="round" stroke-linejoin="round"/>
<path d="M295.54 176.859L281.6 210.089L301.86 170.289C300.48 172.729 298.32 174.949 295.54 176.859Z" fill="#F5EDFF" stroke="#5100CD" stroke-linecap="round" stroke-linejoin="round"/>
<path d="M270.53 183.65C268.32 183.65 266.16 183.52 264.07 183.27L269.27 219.62C269.68 219.66 270.1 219.68 270.53 219.68C271.18 219.68 271.81 219.63 272.42 219.55V183.62C271.79 183.64 271.17 183.66 270.53 183.66V183.65Z" fill="#DBC8F6" stroke="#5100CD" stroke-linecap="round" stroke-linejoin="round"/>
<path d="M276.04 183.38L275.29 218.8C275.56 218.69 275.82 218.56 276.07 218.43L281.43 182.55C279.69 182.91 277.89 183.19 276.04 183.37V183.38Z" fill="#DBC8F6" stroke="#5100CD" stroke-linecap="round" stroke-linejoin="round"/>
<path d="M284.41 181.84L276.77 218.02C277.73 217.38 278.42 216.6 278.72 215.73L281.59 210.08L295.53 176.85C292.48 178.95 288.69 180.65 284.4 181.83L284.41 181.84Z" fill="#DBC8F6" stroke="#5100CD" stroke-linecap="round" stroke-linejoin="round"/>
<rect x="372" y="189" width="30" height="30" rx="15" fill="white"/>
<rect x="372" y="189" width="30" height="30" rx="15" stroke="#5100CD" stroke-width="2"/>
<path d="M388.47 207.66H391.476V210H382.836V207.66H385.842V200.424L383.25 202.008L382.026 200.01L385.698 197.76H388.47V207.66Z" fill="#5100CD"/>
<rect x="287.5" y="327.5" width="126" height="39" rx="3.5" fill="white"/>
<rect x="287.5" y="327.5" width="126" height="39" rx="3.5" stroke="white"/>
<path d="M311.166 347.562V350.198H313.012C313.445 350.198 313.753 350.283 313.935 350.453C314.122 350.617 314.216 350.834 314.216 351.104C314.216 351.367 314.122 351.584 313.935 351.754C313.753 351.918 313.445 352 313.012 352H309.083C308.649 352 308.339 351.918 308.151 351.754C307.97 351.584 307.879 351.364 307.879 351.095C307.879 350.831 307.973 350.617 308.16 350.453C308.348 350.283 308.655 350.198 309.083 350.198H309.364V343.149H309.083C308.649 343.149 308.339 343.067 308.151 342.903C307.97 342.733 307.879 342.514 307.879 342.244C307.879 341.975 307.97 341.758 308.151 341.594C308.339 341.424 308.649 341.339 309.083 341.339L317.564 341.348V344.099C317.564 344.526 317.479 344.834 317.31 345.021C317.146 345.203 316.929 345.294 316.659 345.294C316.396 345.294 316.179 345.203 316.009 345.021C315.845 344.84 315.763 344.532 315.763 344.099V343.149H311.166V345.76H312.748C312.748 345.291 312.792 344.989 312.88 344.854C313.062 344.567 313.319 344.424 313.653 344.424C313.917 344.424 314.131 344.518 314.295 344.705C314.465 344.887 314.55 345.194 314.55 345.628V347.702C314.55 348.136 314.465 348.446 314.295 348.634C314.131 348.815 313.914 348.906 313.645 348.906C313.316 348.906 313.062 348.763 312.88 348.476C312.792 348.341 312.748 348.036 312.748 347.562H311.166ZM327.039 344.02V350.198C327.42 350.198 327.701 350.283 327.883 350.453C328.064 350.623 328.155 350.84 328.155 351.104C328.155 351.367 328.062 351.584 327.874 351.754C327.692 351.918 327.385 352 326.951 352H325.237V351.587C324.722 351.821 324.229 351.997 323.761 352.114C323.292 352.231 322.847 352.29 322.425 352.29C321.833 352.29 321.32 352.167 320.887 351.921C320.453 351.669 320.11 351.323 319.858 350.884C319.677 350.567 319.586 350.172 319.586 349.697V345.821H319.278C318.845 345.821 318.534 345.739 318.347 345.575C318.165 345.405 318.074 345.186 318.074 344.916C318.074 344.652 318.165 344.438 318.347 344.274C318.534 344.104 318.845 344.02 319.278 344.02H321.388V349.381C321.388 349.762 321.479 350.043 321.66 350.225C321.848 350.4 322.132 350.488 322.513 350.488C322.876 350.488 323.266 350.418 323.682 350.277C324.104 350.131 324.622 349.87 325.237 349.495V345.821H324.587C324.153 345.821 323.843 345.739 323.655 345.575C323.474 345.405 323.383 345.186 323.383 344.916C323.383 344.652 323.474 344.438 323.655 344.274C323.843 344.104 324.153 344.02 324.587 344.02H327.039ZM332.198 344.02V344.626C332.526 344.345 332.887 344.134 333.279 343.993C333.678 343.853 334.108 343.782 334.571 343.782C335.638 343.782 336.481 344.113 337.103 344.775C337.595 345.303 337.841 345.994 337.841 346.85V350.198C338.222 350.198 338.503 350.283 338.685 350.453C338.866 350.617 338.957 350.834 338.957 351.104C338.957 351.367 338.863 351.584 338.676 351.754C338.494 351.918 338.187 352 337.753 352H336.127C335.693 352 335.383 351.918 335.195 351.754C335.014 351.584 334.923 351.364 334.923 351.095C334.923 350.831 335.014 350.617 335.195 350.453C335.377 350.283 335.658 350.198 336.039 350.198V346.797C336.039 346.404 335.934 346.117 335.723 345.936C335.447 345.701 335.034 345.584 334.483 345.584C334.067 345.584 333.701 345.666 333.385 345.83C333.074 345.988 332.679 346.328 332.198 346.85V350.198C332.661 350.198 332.96 350.242 333.095 350.33C333.382 350.506 333.525 350.764 333.525 351.104C333.525 351.367 333.432 351.584 333.244 351.754C333.062 351.918 332.755 352 332.321 352H330.273C329.84 352 329.529 351.918 329.342 351.754C329.16 351.584 329.069 351.364 329.069 351.095C329.069 350.767 329.21 350.512 329.491 350.33C329.632 350.242 329.934 350.198 330.396 350.198V345.821C330.016 345.821 329.734 345.736 329.553 345.566C329.371 345.396 329.28 345.18 329.28 344.916C329.28 344.652 329.371 344.438 329.553 344.274C329.74 344.104 330.051 344.02 330.484 344.02H332.198ZM347.641 344.345C347.857 344.14 348.08 344.037 348.309 344.037C348.566 344.037 348.777 344.131 348.941 344.318C349.111 344.5 349.196 344.805 349.196 345.232V346.393C349.196 346.826 349.111 347.134 348.941 347.315C348.777 347.497 348.561 347.588 348.291 347.588C348.045 347.588 347.837 347.518 347.667 347.377C347.544 347.271 347.447 347.058 347.377 346.735C347.307 346.407 347.137 346.164 346.867 346.006C346.393 345.725 345.786 345.584 345.048 345.584C344.198 345.584 343.516 345.833 343 346.331C342.49 346.829 342.235 347.459 342.235 348.221C342.235 348.924 342.481 349.48 342.974 349.891C343.466 350.295 344.283 350.497 345.426 350.497C346.176 350.497 346.788 350.421 347.263 350.269C347.544 350.175 347.811 350.017 348.062 349.794C348.314 349.565 348.543 349.451 348.748 349.451C348.994 349.451 349.205 349.542 349.381 349.724C349.562 349.905 349.653 350.119 349.653 350.365C349.653 350.764 349.381 351.142 348.836 351.499C348.027 352.032 346.844 352.299 345.285 352.299C343.885 352.299 342.795 352.009 342.016 351.429C340.961 350.649 340.434 349.583 340.434 348.229C340.434 346.946 340.861 345.886 341.717 345.048C342.572 344.204 343.688 343.782 345.065 343.782C345.563 343.782 346.026 343.829 346.454 343.923C346.882 344.017 347.277 344.157 347.641 344.345ZM355.199 345.821V349.434C355.199 349.82 355.278 350.075 355.437 350.198C355.683 350.392 356.122 350.488 356.755 350.488C357.675 350.488 358.524 350.292 359.304 349.899C359.603 349.747 359.837 349.671 360.007 349.671C360.241 349.671 360.443 349.759 360.613 349.935C360.789 350.11 360.877 350.324 360.877 350.576C360.877 350.811 360.783 351.013 360.596 351.183C360.309 351.458 359.74 351.713 358.891 351.947C358.047 352.176 357.335 352.29 356.755 352.29C355.636 352.29 354.795 352.05 354.232 351.569C353.676 351.083 353.397 350.488 353.397 349.785V345.821H352.747C352.313 345.821 352.003 345.739 351.815 345.575C351.634 345.405 351.543 345.186 351.543 344.916C351.543 344.652 351.634 344.438 351.815 344.274C352.003 344.104 352.313 344.02 352.747 344.02H353.397V342.394C353.397 341.96 353.479 341.652 353.644 341.471C353.813 341.283 354.033 341.189 354.303 341.189C354.566 341.189 354.78 341.283 354.944 341.471C355.114 341.652 355.199 341.96 355.199 342.394V344.02H358.53C358.964 344.02 359.271 344.104 359.453 344.274C359.641 344.438 359.734 344.655 359.734 344.925C359.734 345.188 359.641 345.405 359.453 345.575C359.271 345.739 358.964 345.821 358.53 345.821H355.199ZM367.1 340.601V342.508H364.955V340.601H367.1ZM367.346 344.02V350.198H369.508C369.941 350.198 370.249 350.283 370.431 350.453C370.618 350.617 370.712 350.834 370.712 351.104C370.712 351.367 370.618 351.584 370.431 351.754C370.249 351.918 369.941 352 369.508 352H363.382C362.948 352 362.638 351.918 362.45 351.754C362.269 351.584 362.178 351.364 362.178 351.095C362.178 350.831 362.269 350.617 362.45 350.453C362.638 350.283 362.948 350.198 363.382 350.198H365.544V345.821H364.094C363.666 345.821 363.358 345.739 363.171 345.575C362.983 345.405 362.89 345.186 362.89 344.916C362.89 344.652 362.98 344.438 363.162 344.274C363.35 344.104 363.66 344.02 364.094 344.02H367.346ZM381.944 348.159C381.944 348.851 381.751 349.521 381.364 350.172C380.983 350.816 380.412 351.332 379.65 351.719C378.895 352.1 378.104 352.29 377.277 352.29C376.457 352.29 375.672 352.103 374.922 351.728C374.172 351.347 373.601 350.831 373.208 350.181C372.815 349.53 372.619 348.851 372.619 348.142C372.619 347.421 372.818 346.715 373.217 346.023C373.615 345.326 374.187 344.778 374.931 344.38C375.681 343.981 376.463 343.782 377.277 343.782C378.098 343.782 378.886 343.987 379.642 344.397C380.403 344.802 380.978 345.35 381.364 346.041C381.751 346.727 381.944 347.433 381.944 348.159ZM380.143 348.168C380.143 347.588 379.935 347.055 379.519 346.568C378.95 345.912 378.203 345.584 377.277 345.584C376.463 345.584 375.783 345.845 375.238 346.366C374.693 346.888 374.421 347.491 374.421 348.177C374.421 348.739 374.696 349.267 375.247 349.759C375.798 350.245 376.475 350.488 377.277 350.488C378.086 350.488 378.766 350.245 379.316 349.759C379.867 349.267 380.143 348.736 380.143 348.168ZM386.251 344.02V344.626C386.579 344.345 386.939 344.134 387.332 343.993C387.73 343.853 388.161 343.782 388.624 343.782C389.69 343.782 390.534 344.113 391.155 344.775C391.647 345.303 391.894 345.994 391.894 346.85V350.198C392.274 350.198 392.556 350.283 392.737 350.453C392.919 350.617 393.01 350.834 393.01 351.104C393.01 351.367 392.916 351.584 392.729 351.754C392.547 351.918 392.239 352 391.806 352H390.18C389.746 352 389.436 351.918 389.248 351.754C389.066 351.584 388.976 351.364 388.976 351.095C388.976 350.831 389.066 350.617 389.248 350.453C389.43 350.283 389.711 350.198 390.092 350.198V346.797C390.092 346.404 389.986 346.117 389.775 345.936C389.5 345.701 389.087 345.584 388.536 345.584C388.12 345.584 387.754 345.666 387.438 345.83C387.127 345.988 386.731 346.328 386.251 346.85V350.198C386.714 350.198 387.013 350.242 387.147 350.33C387.435 350.506 387.578 350.764 387.578 351.104C387.578 351.367 387.484 351.584 387.297 351.754C387.115 351.918 386.808 352 386.374 352H384.326C383.893 352 383.582 351.918 383.395 351.754C383.213 351.584 383.122 351.364 383.122 351.095C383.122 350.767 383.263 350.512 383.544 350.33C383.685 350.242 383.986 350.198 384.449 350.198V345.821C384.068 345.821 383.787 345.736 383.605 345.566C383.424 345.396 383.333 345.18 383.333 344.916C383.333 344.652 383.424 344.438 383.605 344.274C383.793 344.104 384.104 344.02 384.537 344.02H386.251Z" fill="#5100CD"/>
</svg>
